<mxfile host="Electron" modified="2023-06-27T22:15:06.220Z" agent="Mozilla/5.0 (Windows NT 10.0; Win64; x64) AppleWebKit/537.36 (KHTML, like Gecko) draw.io/21.2.8 Chrome/112.0.5615.165 Electron/24.2.0 Safari/537.36" etag="eZsVdMjcU1rOsMMN5m7f" version="21.2.8" type="device">
  <diagram name="Page-1" id="W9xMwAUbrN82zW6BPox3">
    <mxGraphModel dx="989" dy="577" grid="1" gridSize="10" guides="1" tooltips="1" connect="1" arrows="1" fold="1" page="1" pageScale="1" pageWidth="850" pageHeight="1100" math="1" shadow="0">
      <root>
        <mxCell id="0" />
        <mxCell id="1" parent="0" />
        <mxCell id="5L15_L-fKl23Sdav9iab-59" value="" style="shape=offPageConnector;whiteSpace=wrap;html=1;size=1;rotation=-185;fillStyle=cross-hatch;fillColor=#d5e8d4;strokeColor=#82b366;" vertex="1" parent="1">
          <mxGeometry x="282.7" y="298" width="179.3" height="121.62" as="geometry" />
        </mxCell>
        <mxCell id="5L15_L-fKl23Sdav9iab-58" value="" style="shape=offPageConnector;whiteSpace=wrap;html=1;size=1;rotation=-80;fillStyle=cross-hatch;fillColor=#dae8fc;strokeColor=#6c8ebf;" vertex="1" parent="1">
          <mxGeometry x="204.7" y="210.12" width="179.3" height="148.62" as="geometry" />
        </mxCell>
        <mxCell id="5L15_L-fKl23Sdav9iab-29" value="" style="group" vertex="1" connectable="0" parent="1">
          <mxGeometry x="200" y="160" width="40" height="200" as="geometry" />
        </mxCell>
        <mxCell id="5L15_L-fKl23Sdav9iab-30" value="&lt;b&gt;·&amp;nbsp;·&amp;nbsp;·&lt;/b&gt;" style="rounded=0;whiteSpace=wrap;html=1;fillColor=#dae8fc;strokeColor=#6c8ebf;horizontal=0;" vertex="1" parent="5L15_L-fKl23Sdav9iab-29">
          <mxGeometry width="40" height="200" as="geometry" />
        </mxCell>
        <mxCell id="5L15_L-fKl23Sdav9iab-31" value="" style="verticalLabelPosition=bottom;shadow=0;dashed=0;align=center;html=1;verticalAlign=top;shape=mxgraph.electrical.radio.aerial_-_antenna_2;" vertex="1" parent="5L15_L-fKl23Sdav9iab-29">
          <mxGeometry x="10" y="10" width="20" height="30" as="geometry" />
        </mxCell>
        <mxCell id="5L15_L-fKl23Sdav9iab-32" value="" style="verticalLabelPosition=bottom;shadow=0;dashed=0;align=center;html=1;verticalAlign=top;shape=mxgraph.electrical.radio.aerial_-_antenna_2;" vertex="1" parent="5L15_L-fKl23Sdav9iab-29">
          <mxGeometry x="10" y="50" width="20" height="30" as="geometry" />
        </mxCell>
        <mxCell id="5L15_L-fKl23Sdav9iab-33" value="" style="verticalLabelPosition=bottom;shadow=0;dashed=0;align=center;html=1;verticalAlign=top;shape=mxgraph.electrical.radio.aerial_-_antenna_2;" vertex="1" parent="5L15_L-fKl23Sdav9iab-29">
          <mxGeometry x="10" y="160" width="20" height="30" as="geometry" />
        </mxCell>
        <mxCell id="5L15_L-fKl23Sdav9iab-34" value="" style="verticalLabelPosition=bottom;shadow=0;dashed=0;align=center;html=1;verticalAlign=top;shape=mxgraph.electrical.radio.aerial_-_antenna_2;" vertex="1" parent="5L15_L-fKl23Sdav9iab-29">
          <mxGeometry x="10" y="120" width="20" height="30" as="geometry" />
        </mxCell>
        <mxCell id="5L15_L-fKl23Sdav9iab-35" value="&lt;font color=&quot;#000000&quot;&gt;Transmitting&lt;br&gt;Transducers&lt;br&gt;&lt;/font&gt;" style="text;html=1;strokeColor=none;fillColor=none;align=center;verticalAlign=middle;whiteSpace=wrap;rounded=0;fontSize=16;fontColor=#ffb570;" vertex="1" parent="1">
          <mxGeometry x="170" y="120" width="100" height="30" as="geometry" />
        </mxCell>
        <mxCell id="5L15_L-fKl23Sdav9iab-36" value="&lt;font color=&quot;#000000&quot;&gt;Receiving&lt;br&gt;Transducers&lt;br&gt;&lt;/font&gt;" style="text;html=1;strokeColor=none;fillColor=none;align=center;verticalAlign=middle;whiteSpace=wrap;rounded=0;fontSize=16;fontColor=#ffb570;" vertex="1" parent="1">
          <mxGeometry x="490" y="405" width="100" height="30" as="geometry" />
        </mxCell>
        <mxCell id="5L15_L-fKl23Sdav9iab-37" value="&lt;b&gt;·&amp;nbsp;·&amp;nbsp;·&lt;/b&gt;" style="rounded=0;whiteSpace=wrap;html=1;fillColor=#d5e8d4;strokeColor=#82b366;horizontal=0;rotation=-90;" vertex="1" parent="1">
          <mxGeometry x="360" y="320" width="40" height="200" as="geometry" />
        </mxCell>
        <mxCell id="5L15_L-fKl23Sdav9iab-38" value="" style="verticalLabelPosition=bottom;shadow=0;dashed=0;align=center;html=1;verticalAlign=top;shape=mxgraph.electrical.radio.aerial_-_antenna_2;rotation=0;" vertex="1" parent="1">
          <mxGeometry x="295" y="405" width="20" height="30" as="geometry" />
        </mxCell>
        <mxCell id="5L15_L-fKl23Sdav9iab-39" value="" style="verticalLabelPosition=bottom;shadow=0;dashed=0;align=center;html=1;verticalAlign=top;shape=mxgraph.electrical.radio.aerial_-_antenna_2;rotation=0;" vertex="1" parent="1">
          <mxGeometry x="335" y="405" width="20" height="30" as="geometry" />
        </mxCell>
        <mxCell id="5L15_L-fKl23Sdav9iab-40" value="" style="verticalLabelPosition=bottom;shadow=0;dashed=0;align=center;html=1;verticalAlign=top;shape=mxgraph.electrical.radio.aerial_-_antenna_2;rotation=0;" vertex="1" parent="1">
          <mxGeometry x="445" y="405" width="20" height="30" as="geometry" />
        </mxCell>
        <mxCell id="5L15_L-fKl23Sdav9iab-41" value="" style="verticalLabelPosition=bottom;shadow=0;dashed=0;align=center;html=1;verticalAlign=top;shape=mxgraph.electrical.radio.aerial_-_antenna_2;rotation=0;" vertex="1" parent="1">
          <mxGeometry x="405" y="405" width="20" height="30" as="geometry" />
        </mxCell>
        <mxCell id="5L15_L-fKl23Sdav9iab-42" value="" style="ellipse;whiteSpace=wrap;html=1;aspect=fixed;fillColor=#f0a30a;strokeColor=#000000;fontColor=#000000;" vertex="1" parent="1">
          <mxGeometry x="438" y="255" width="10" height="10" as="geometry" />
        </mxCell>
        <mxCell id="5L15_L-fKl23Sdav9iab-44" value="" style="ellipse;whiteSpace=wrap;html=1;aspect=fixed;fillColor=#f0a30a;strokeColor=#000000;fontColor=#000000;" vertex="1" parent="1">
          <mxGeometry x="324" y="196" width="10" height="10" as="geometry" />
        </mxCell>
        <mxCell id="5L15_L-fKl23Sdav9iab-45" value="" style="ellipse;whiteSpace=wrap;html=1;aspect=fixed;fillColor=#f0a30a;strokeColor=#000000;fontColor=#000000;" vertex="1" parent="1">
          <mxGeometry x="362" y="293" width="10" height="10" as="geometry" />
        </mxCell>
        <mxCell id="5L15_L-fKl23Sdav9iab-51" style="rounded=0;orthogonalLoop=1;jettySize=auto;html=1;exitX=0;exitY=0.75;exitDx=0;exitDy=0;" edge="1" parent="1" source="5L15_L-fKl23Sdav9iab-50">
          <mxGeometry relative="1" as="geometry">
            <mxPoint x="340" y="200" as="targetPoint" />
          </mxGeometry>
        </mxCell>
        <mxCell id="5L15_L-fKl23Sdav9iab-53" style="rounded=0;orthogonalLoop=1;jettySize=auto;html=1;exitX=0.5;exitY=1;exitDx=0;exitDy=0;" edge="1" parent="1" source="5L15_L-fKl23Sdav9iab-50">
          <mxGeometry relative="1" as="geometry">
            <mxPoint x="370" y="290" as="targetPoint" />
          </mxGeometry>
        </mxCell>
        <mxCell id="5L15_L-fKl23Sdav9iab-50" value="&lt;font style=&quot;font-size: 16px;&quot;&gt;Scatterers&lt;/font&gt;" style="text;html=1;strokeColor=none;fillColor=none;align=center;verticalAlign=middle;whiteSpace=wrap;rounded=0;" vertex="1" parent="1">
          <mxGeometry x="372" y="170" width="82" height="26" as="geometry" />
        </mxCell>
        <mxCell id="5L15_L-fKl23Sdav9iab-52" style="rounded=0;orthogonalLoop=1;jettySize=auto;html=1;exitX=0.75;exitY=1;exitDx=0;exitDy=0;" edge="1" parent="1" source="5L15_L-fKl23Sdav9iab-50">
          <mxGeometry relative="1" as="geometry">
            <mxPoint x="440" y="250" as="targetPoint" />
            <mxPoint x="390" y="205" as="sourcePoint" />
          </mxGeometry>
        </mxCell>
        <mxCell id="5L15_L-fKl23Sdav9iab-60" value="$$\begin{bmatrix}&lt;br&gt;| \\&lt;br&gt;\mathbf{v}_i(\lambda) \\&lt;br&gt;|&lt;br&gt;\end{bmatrix}$$" style="text;html=1;strokeColor=none;fillColor=none;align=center;verticalAlign=middle;whiteSpace=wrap;rounded=0;" vertex="1" parent="1">
          <mxGeometry x="107" y="245" width="60" height="30" as="geometry" />
        </mxCell>
        <mxCell id="5L15_L-fKl23Sdav9iab-61" value="$$\begin{bmatrix}&lt;br&gt;—\,\mathbf{u}_i^*(\lambda) \,—&lt;br&gt;\end{bmatrix}$$" style="text;html=1;strokeColor=none;fillColor=none;align=center;verticalAlign=middle;whiteSpace=wrap;rounded=0;" vertex="1" parent="1">
          <mxGeometry x="350" y="472" width="60" height="30" as="geometry" />
        </mxCell>
        <mxCell id="5L15_L-fKl23Sdav9iab-65" value="" style="endArrow=none;html=1;rounded=0;entryX=0;entryY=0;entryDx=0;entryDy=0;" edge="1" parent="1" target="5L15_L-fKl23Sdav9iab-30">
          <mxGeometry width="50" height="50" relative="1" as="geometry">
            <mxPoint x="160" y="230" as="sourcePoint" />
            <mxPoint x="190" y="160" as="targetPoint" />
          </mxGeometry>
        </mxCell>
        <mxCell id="5L15_L-fKl23Sdav9iab-67" value="" style="endArrow=none;html=1;rounded=0;" edge="1" parent="1">
          <mxGeometry width="50" height="50" relative="1" as="geometry">
            <mxPoint x="160" y="290.74" as="sourcePoint" />
            <mxPoint x="200" y="360.74" as="targetPoint" />
          </mxGeometry>
        </mxCell>
        <mxCell id="5L15_L-fKl23Sdav9iab-68" value="" style="endArrow=none;html=1;rounded=0;exitX=0;exitY=0;exitDx=0;exitDy=0;" edge="1" parent="1" source="5L15_L-fKl23Sdav9iab-37">
          <mxGeometry width="50" height="50" relative="1" as="geometry">
            <mxPoint x="274" y="480" as="sourcePoint" />
            <mxPoint x="340" y="480" as="targetPoint" />
          </mxGeometry>
        </mxCell>
        <mxCell id="5L15_L-fKl23Sdav9iab-69" value="" style="endArrow=none;html=1;rounded=0;" edge="1" parent="1">
          <mxGeometry width="50" height="50" relative="1" as="geometry">
            <mxPoint x="420" y="480" as="sourcePoint" />
            <mxPoint x="480" y="440" as="targetPoint" />
          </mxGeometry>
        </mxCell>
      </root>
    </mxGraphModel>
  </diagram>
</mxfile>
